<?xml version="1.0" encoding="UTF-8" standalone="no"?>
<svg xmlns="http://www.w3.org/2000/svg" width="235" height="360" viewBox="0 0 235 360" version="1.1">
  <defs>
    <radialGradient id="bgBall" cx="50%" cy="44%" r="62%">
      <stop offset="0%" stop-color="#08148B"/>
      <stop offset="72%" stop-color="#04106B"/>
      <stop offset="100%" stop-color="#020742"/>
    </radialGradient>
    <linearGradient id="outerRim" x1="0%" y1="0%" x2="100%" y2="100%">
      <stop offset="0%" stop-color="#3154F4"/>
      <stop offset="100%" stop-color="#1437C4"/>
    </linearGradient>
    <linearGradient id="panelTL" x1="0%" y1="0%" x2="100%" y2="100%">
      <stop offset="0%" stop-color="#223BDE"/>
      <stop offset="100%" stop-color="#162AAE"/>
    </linearGradient>
    <linearGradient id="panelTR" x1="100%" y1="0%" x2="0%" y2="100%">
      <stop offset="0%" stop-color="#223BDE"/>
      <stop offset="100%" stop-color="#162AAE"/>
    </linearGradient>
    <linearGradient id="panelL" x1="10%" y1="0%" x2="100%" y2="100%">
      <stop offset="0%" stop-color="#253FE0"/>
      <stop offset="100%" stop-color="#182DB0"/>
    </linearGradient>
    <linearGradient id="panelR" x1="90%" y1="0%" x2="0%" y2="100%">
      <stop offset="0%" stop-color="#253FE0"/>
      <stop offset="100%" stop-color="#182DB0"/>
    </linearGradient>
    <linearGradient id="panelB" x1="50%" y1="0%" x2="50%" y2="100%">
      <stop offset="0%" stop-color="#2137DA"/>
      <stop offset="100%" stop-color="#172AAE"/>
    </linearGradient>
    <clipPath id="ballClip">
      <circle cx="118" cy="143" r="96"/>
    </clipPath>
  </defs>

  <rect width="235" height="360" fill="#FFFFFF"/>

  <circle cx="118" cy="143" r="100" fill="url(#outerRim)"/>
  <circle cx="118" cy="143" r="96.5" fill="#0A167C"/>
  <circle cx="118" cy="143" r="92.5" fill="url(#bgBall)"/>

  <g clip-path="url(#ballClip)">
    <path d="M 44 103 Q 64 70 89 48 Q 101 38 118 40" fill="none" stroke="#1D3ED7" stroke-width="4.5" stroke-linecap="round"/>
    <path d="M 192 103 Q 172 70 147 48 Q 135 38 118 40" fill="none" stroke="#1D3ED7" stroke-width="4.5" stroke-linecap="round"/>
    <path d="M 32 112 Q 28 129 35 149" fill="none" stroke="#1D3ED7" stroke-width="4.5" stroke-linecap="round"/>
    <path d="M 204 112 Q 208 129 201 149" fill="none" stroke="#1D3ED7" stroke-width="4.5" stroke-linecap="round"/>
    <path d="M 78 192 Q 118 198 158 192" fill="none" stroke="#1D3ED7" stroke-width="4.5" stroke-linecap="round"/>

    <polygon points="116,78 89,70 57,94 57,121 87,128 90,100 115,98" fill="url(#panelTL)" stroke="#06116E" stroke-width="5" stroke-linejoin="round"/>
    <polygon points="123,78 123,98 149,105 153,128 156,114 158,128 181,121 182,95 150,71" fill="url(#panelTR)" stroke="#06116E" stroke-width="5" stroke-linejoin="round"/>
    <polygon points="55,128 40,147 50,185 78,196 90,179 83,138" fill="url(#panelL)" stroke="#06116E" stroke-width="5" stroke-linejoin="round"/>
    <polygon points="184,128 159,135 145,173 160,195 188,187 199,147" fill="url(#panelR)" stroke="#06116E" stroke-width="5" stroke-linejoin="round"/>
    <polygon points="84,199 98,223 140,222 155,201 139,177 116,177 112,196 89,192" fill="url(#panelB)" stroke="#06116E" stroke-width="5" stroke-linejoin="round"/>

    <path d="M 118 42 L 118 100" stroke="#06116E" stroke-width="6" stroke-linecap="round"/>
  </g>

  <circle cx="118" cy="143" r="96.5" fill="none" stroke="#07115F" stroke-width="2"/>
  <circle cx="118" cy="143" r="99.5" fill="none" stroke="#2F56F4" stroke-width="1.8"/>

  <g transform="translate(92.825 177.168) scale(101.818 -101.818)" opacity="0.80"><path d="M 0.3275 0.3709 L 0.3842 0.3788 L 0.4225 0.4025 L 0.4443 0.4403 L 0.4516 0.4905 L 0.4497 0.5143 L 0.4441 0.5359 L 0.4346 0.5551 L 0.4213 0.5713 L 0.4039 0.5843 L 0.3827 0.5939 L 0.3573 0.6000 L 0.3275 0.6020 L 0.2395 0.6020 L 0.2395 0.3709 L 0.3275 0.3709 Z M 0.3275 0.7284 L 0.3991 0.7239 L 0.4597 0.7102 L 0.5101 0.6886 L 0.5508 0.6600 L 0.5818 0.6251 L 0.6034 0.5844 L 0.6162 0.5392 L 0.6205 0.4905 L 0.6161 0.4382 L 0.6030 0.3905 L 0.5808 0.3482 L 0.5494 0.3125 L 0.5086 0.2836 L 0.4581 0.2617 L 0.3979 0.2480 L 0.3275 0.2434 L 0.2395 0.2434 L 0.2395 0.0000 L 0.0705 0.0000 L 0.0705 0.7284 L 0.3275 0.7284 Z" fill="#A8AEC4" fill-rule="evenodd"/></g>
  <g transform="translate(89.825 174.168) scale(101.818 -101.818)" ><path d="M 0.3275 0.3709 L 0.3842 0.3788 L 0.4225 0.4025 L 0.4443 0.4403 L 0.4516 0.4905 L 0.4497 0.5143 L 0.4441 0.5359 L 0.4346 0.5551 L 0.4213 0.5713 L 0.4039 0.5843 L 0.3827 0.5939 L 0.3573 0.6000 L 0.3275 0.6020 L 0.2395 0.6020 L 0.2395 0.3709 L 0.3275 0.3709 Z M 0.3275 0.7284 L 0.3991 0.7239 L 0.4597 0.7102 L 0.5101 0.6886 L 0.5508 0.6600 L 0.5818 0.6251 L 0.6034 0.5844 L 0.6162 0.5392 L 0.6205 0.4905 L 0.6161 0.4382 L 0.6030 0.3905 L 0.5808 0.3482 L 0.5494 0.3125 L 0.5086 0.2836 L 0.4581 0.2617 L 0.3979 0.2480 L 0.3275 0.2434 L 0.2395 0.2434 L 0.2395 0.0000 L 0.0705 0.0000 L 0.0705 0.7284 L 0.3275 0.7284 Z" fill="#FFFFFF" fill-rule="evenodd"/></g>

  <g transform="translate(44.401 308.034) scale(58.167 -58.167)" opacity="0.55"><path d="M 0.3275 0.3709 L 0.3842 0.3788 L 0.4225 0.4025 L 0.4443 0.4403 L 0.4516 0.4905 L 0.4497 0.5143 L 0.4441 0.5359 L 0.4346 0.5551 L 0.4213 0.5713 L 0.4039 0.5843 L 0.3827 0.5939 L 0.3573 0.6000 L 0.3275 0.6020 L 0.2395 0.6020 L 0.2395 0.3709 L 0.3275 0.3709 Z M 0.3275 0.7284 L 0.3991 0.7239 L 0.4597 0.7102 L 0.5101 0.6886 L 0.5508 0.6600 L 0.5818 0.6251 L 0.6034 0.5844 L 0.6162 0.5392 L 0.6205 0.4905 L 0.6161 0.4382 L 0.6030 0.3905 L 0.5808 0.3482 L 0.5494 0.3125 L 0.5086 0.2836 L 0.4581 0.2617 L 0.3979 0.2480 L 0.3275 0.2434 L 0.2395 0.2434 L 0.2395 0.0000 L 0.0705 0.0000 L 0.0705 0.7284 L 0.3275 0.7284 Z M 0.8435 0.7484 L 0.8435 0.0000 L 0.6885 0.0000 L 0.6885 0.7484 L 0.8435 0.7484 Z M 1.1876 0.5266 L 1.2439 0.5219 L 1.2949 0.5080 L 1.3400 0.4855 L 1.3782 0.4550 L 1.4091 0.4168 L 1.4323 0.3713 L 1.4467 0.3189 L 1.4515 0.2605 L 1.4467 0.2015 L 1.4323 0.1487 L 1.4091 0.1028 L 1.3782 0.0642 L 1.3400 0.0335 L 1.2949 0.0108 L 1.2439 -0.0033 L 1.1876 -0.0080 L 1.1307 -0.0033 L 1.0793 0.0108 L 1.0339 0.0335 L 0.9952 0.0642 L 0.9640 0.1028 L 0.9407 0.1487 L 0.9263 0.2015 L 0.9215 0.2605 L 0.9263 0.3189 L 0.9407 0.3713 L 0.9640 0.4168 L 0.9952 0.4550 L 1.0339 0.4855 L 1.0793 0.5080 L 1.1307 0.5219 L 1.1876 0.5266 Z M 1.1876 0.1070 L 1.2339 0.1164 L 1.2662 0.1447 L 1.2851 0.1923 L 1.2915 0.2595 L 1.2851 0.3267 L 1.2662 0.3741 L 1.2339 0.4022 L 1.1876 0.4116 L 1.1399 0.4022 L 1.1069 0.3741 L 1.0878 0.3267 L 1.0815 0.2595 L 1.0878 0.1923 L 1.1069 0.1447 L 1.1399 0.1164 L 1.1876 0.1070 Z M 1.6845 0.7484 L 1.6845 0.3291 L 1.7075 0.3291 L 1.7202 0.3301 L 1.7295 0.3333 L 1.7370 0.3389 L 1.7445 0.3475 L 1.8425 0.4934 L 1.8521 0.5044 L 1.8629 0.5122 L 1.8761 0.5169 L 1.8925 0.5184 L 2.0345 0.5184 L 1.9004 0.3341 L 1.8797 0.3113 L 1.8554 0.2930 L 1.8665 0.2838 L 1.8765 0.2733 L 1.8858 0.2613 L 1.8945 0.2480 L 2.0404 0.0000 L 1.9004 0.0000 L 1.8842 0.0014 L 1.8704 0.0058 L 1.8590 0.0137 L 1.8495 0.0259 L 1.7515 0.2095 L 1.7444 0.2198 L 1.7370 0.2258 L 1.7276 0.2286 L 1.7145 0.2295 L 1.6845 0.2295 L 1.6845 0.0000 L 1.5295 0.0000 L 1.5295 0.7484 L 1.6845 0.7484 Z M 2.5805 0.5184 L 2.3035 -0.1345 L 2.2957 -0.1479 L 2.2864 -0.1572 L 2.2735 -0.1627 L 2.2546 -0.1645 L 2.1385 -0.1645 L 2.2385 0.0455 L 2.0314 0.5184 L 2.1685 0.5184 L 2.1844 0.5164 L 2.1961 0.5105 L 2.2046 0.5018 L 2.2105 0.4916 L 2.2955 0.2680 L 2.3064 0.2371 L 2.3150 0.2055 L 2.3205 0.2215 L 2.3260 0.2375 L 2.3316 0.2534 L 2.3375 0.2691 L 2.4146 0.4916 L 2.4207 0.5020 L 2.4305 0.5106 L 2.4425 0.5165 L 2.4555 0.5184 L 2.5805 0.5184 Z" fill="#A8AEC4" fill-rule="evenodd"/></g>
  <g transform="translate(42.901 306.534) scale(58.167 -58.167)" ><path d="M 0.3275 0.3709 L 0.3842 0.3788 L 0.4225 0.4025 L 0.4443 0.4403 L 0.4516 0.4905 L 0.4497 0.5143 L 0.4441 0.5359 L 0.4346 0.5551 L 0.4213 0.5713 L 0.4039 0.5843 L 0.3827 0.5939 L 0.3573 0.6000 L 0.3275 0.6020 L 0.2395 0.6020 L 0.2395 0.3709 L 0.3275 0.3709 Z M 0.3275 0.7284 L 0.3991 0.7239 L 0.4597 0.7102 L 0.5101 0.6886 L 0.5508 0.6600 L 0.5818 0.6251 L 0.6034 0.5844 L 0.6162 0.5392 L 0.6205 0.4905 L 0.6161 0.4382 L 0.6030 0.3905 L 0.5808 0.3482 L 0.5494 0.3125 L 0.5086 0.2836 L 0.4581 0.2617 L 0.3979 0.2480 L 0.3275 0.2434 L 0.2395 0.2434 L 0.2395 0.0000 L 0.0705 0.0000 L 0.0705 0.7284 L 0.3275 0.7284 Z M 0.8435 0.7484 L 0.8435 0.0000 L 0.6885 0.0000 L 0.6885 0.7484 L 0.8435 0.7484 Z M 1.1876 0.5266 L 1.2439 0.5219 L 1.2949 0.5080 L 1.3400 0.4855 L 1.3782 0.4550 L 1.4091 0.4168 L 1.4323 0.3713 L 1.4467 0.3189 L 1.4515 0.2605 L 1.4467 0.2015 L 1.4323 0.1487 L 1.4091 0.1028 L 1.3782 0.0642 L 1.3400 0.0335 L 1.2949 0.0108 L 1.2439 -0.0033 L 1.1876 -0.0080 L 1.1307 -0.0033 L 1.0793 0.0108 L 1.0339 0.0335 L 0.9952 0.0642 L 0.9640 0.1028 L 0.9407 0.1487 L 0.9263 0.2015 L 0.9215 0.2605 L 0.9263 0.3189 L 0.9407 0.3713 L 0.9640 0.4168 L 0.9952 0.4550 L 1.0339 0.4855 L 1.0793 0.5080 L 1.1307 0.5219 L 1.1876 0.5266 Z M 1.1876 0.1070 L 1.2339 0.1164 L 1.2662 0.1447 L 1.2851 0.1923 L 1.2915 0.2595 L 1.2851 0.3267 L 1.2662 0.3741 L 1.2339 0.4022 L 1.1876 0.4116 L 1.1399 0.4022 L 1.1069 0.3741 L 1.0878 0.3267 L 1.0815 0.2595 L 1.0878 0.1923 L 1.1069 0.1447 L 1.1399 0.1164 L 1.1876 0.1070 Z M 1.6845 0.7484 L 1.6845 0.3291 L 1.7075 0.3291 L 1.7202 0.3301 L 1.7295 0.3333 L 1.7370 0.3389 L 1.7445 0.3475 L 1.8425 0.4934 L 1.8521 0.5044 L 1.8629 0.5122 L 1.8761 0.5169 L 1.8925 0.5184 L 2.0345 0.5184 L 1.9004 0.3341 L 1.8797 0.3113 L 1.8554 0.2930 L 1.8665 0.2838 L 1.8765 0.2733 L 1.8858 0.2613 L 1.8945 0.2480 L 2.0404 0.0000 L 1.9004 0.0000 L 1.8842 0.0014 L 1.8704 0.0058 L 1.8590 0.0137 L 1.8495 0.0259 L 1.7515 0.2095 L 1.7444 0.2198 L 1.7370 0.2258 L 1.7276 0.2286 L 1.7145 0.2295 L 1.6845 0.2295 L 1.6845 0.0000 L 1.5295 0.0000 L 1.5295 0.7484 L 1.6845 0.7484 Z M 2.5805 0.5184 L 2.3035 -0.1345 L 2.2957 -0.1479 L 2.2864 -0.1572 L 2.2735 -0.1627 L 2.2546 -0.1645 L 2.1385 -0.1645 L 2.2385 0.0455 L 2.0314 0.5184 L 2.1685 0.5184 L 2.1844 0.5164 L 2.1961 0.5105 L 2.2046 0.5018 L 2.2105 0.4916 L 2.2955 0.2680 L 2.3064 0.2371 L 2.3150 0.2055 L 2.3205 0.2215 L 2.3260 0.2375 L 2.3316 0.2534 L 2.3375 0.2691 L 2.4146 0.4916 L 2.4207 0.5020 L 2.4305 0.5106 L 2.4425 0.5165 L 2.4555 0.5184 L 2.5805 0.5184 Z" fill="#08126E" fill-rule="evenodd"/></g>
  <g transform="translate(44.517 343.269) scale(30.042 -30.042)" opacity="0.35"><path d="M 0.1280 0.6891 L 0.1280 0.3509 L 0.4750 0.3509 L 0.4750 0.3400 L 0.1280 0.3400 L 0.1280 0.0000 L 0.1159 0.0000 L 0.1159 0.7000 L 0.5250 0.7000 L 0.5250 0.6891 L 0.1280 0.6891 Z M 1.2795 0.3500 L 1.2735 0.2712 L 1.2557 0.2009 L 1.2272 0.1399 L 1.1892 0.0887 L 1.1423 0.0479 L 1.0870 0.0177 L 1.0244 -0.0009 L 0.9556 -0.0070 L 0.8871 -0.0009 L 0.8248 0.0177 L 0.7697 0.0479 L 0.7228 0.0887 L 0.6847 0.1399 L 0.6562 0.2009 L 0.6384 0.2712 L 0.6324 0.3500 L 0.6384 0.4284 L 0.6562 0.4988 L 0.6847 0.5600 L 0.7228 0.6114 L 0.7697 0.6526 L 0.8248 0.6830 L 0.8871 0.7017 L 0.9556 0.7080 L 1.0244 0.7018 L 1.0870 0.6831 L 1.1423 0.6530 L 1.1892 0.6119 L 1.2272 0.5605 L 1.2557 0.4992 L 1.2735 0.4288 L 1.2795 0.3500 Z M 1.2665 0.3500 L 1.2608 0.4273 L 1.2437 0.4959 L 1.2164 0.5556 L 1.1799 0.6055 L 1.1349 0.6452 L 1.0817 0.6742 L 1.0215 0.6920 L 0.9556 0.6980 L 0.8902 0.6920 L 0.8304 0.6742 L 0.7774 0.6452 L 0.7323 0.6055 L 0.6955 0.5556 L 0.6678 0.4959 L 0.6503 0.4273 L 0.6445 0.3500 L 0.6503 0.2728 L 0.6678 0.2042 L 0.6955 0.1448 L 0.7323 0.0952 L 0.7774 0.0557 L 0.8304 0.0267 L 0.8902 0.0089 L 0.9556 0.0030 L 1.0215 0.0089 L 1.0817 0.0267 L 1.1349 0.0557 L 1.1799 0.0952 L 1.2164 0.1448 L 1.2437 0.2042 L 1.2608 0.2728 L 1.2665 0.3500 Z M 2.0635 0.3500 L 2.0575 0.2712 L 2.0397 0.2009 L 2.0112 0.1399 L 1.9732 0.0887 L 1.9263 0.0479 L 1.8710 0.0177 L 1.8084 -0.0009 L 1.7396 -0.0070 L 1.6711 -0.0009 L 1.6088 0.0177 L 1.5537 0.0479 L 1.5068 0.0887 L 1.4687 0.1399 L 1.4402 0.2009 L 1.4224 0.2712 L 1.4164 0.3500 L 1.4224 0.4284 L 1.4402 0.4988 L 1.4687 0.5600 L 1.5068 0.6114 L 1.5537 0.6526 L 1.6088 0.6830 L 1.6711 0.7017 L 1.7396 0.7080 L 1.8084 0.7018 L 1.8710 0.6831 L 1.9263 0.6530 L 1.9732 0.6119 L 2.0112 0.5605 L 2.0397 0.4992 L 2.0575 0.4288 L 2.0635 0.3500 Z M 2.0505 0.3500 L 2.0448 0.4273 L 2.0277 0.4959 L 2.0004 0.5556 L 1.9639 0.6055 L 1.9189 0.6452 L 1.8657 0.6742 L 1.8055 0.6920 L 1.7396 0.6980 L 1.6742 0.6920 L 1.6144 0.6742 L 1.5614 0.6452 L 1.5163 0.6055 L 1.4795 0.5556 L 1.4518 0.4959 L 1.4343 0.4273 L 1.4285 0.3500 L 1.4343 0.2728 L 1.4518 0.2042 L 1.4795 0.1448 L 1.5163 0.0952 L 1.5614 0.0557 L 1.6144 0.0267 L 1.6742 0.0089 L 1.7396 0.0030 L 1.8055 0.0089 L 1.8657 0.0267 L 1.9189 0.0557 L 1.9639 0.0952 L 2.0004 0.1448 L 2.0277 0.2042 L 2.0448 0.2728 L 2.0505 0.3500 Z M 2.6865 0.6891 L 2.4236 0.6891 L 2.4236 0.0000 L 2.4115 0.0000 L 2.4115 0.6891 L 2.1465 0.6891 L 2.1465 0.7000 L 2.6865 0.7000 L 2.6865 0.6891 Z M 3.0260 0.0100 L 3.0739 0.0127 L 3.1165 0.0209 L 3.1534 0.0347 L 3.1841 0.0537 L 3.2086 0.0782 L 3.2265 0.1081 L 3.2374 0.1435 L 3.2410 0.1841 L 3.2372 0.2202 L 3.2257 0.2527 L 3.2074 0.2812 L 3.1827 0.3052 L 3.1520 0.3244 L 3.1152 0.3384 L 3.0733 0.3471 L 3.0269 0.3500 L 2.8290 0.3500 L 2.8290 0.0100 L 3.0260 0.0100 Z M 2.8290 0.6900 L 2.8290 0.3600 L 3.0040 0.3600 L 3.0558 0.3639 L 3.0990 0.3755 L 3.1344 0.3931 L 3.1624 0.4152 L 3.1835 0.4407 L 3.1979 0.4688 L 3.2062 0.4977 L 3.2090 0.5259 L 3.1960 0.5953 L 3.1573 0.6470 L 3.0918 0.6793 L 2.9990 0.6900 L 2.8290 0.6900 Z M 2.9990 0.7000 L 3.0963 0.6888 L 3.1652 0.6552 L 3.2064 0.6005 L 3.2201 0.5259 L 3.2170 0.4955 L 3.2077 0.4659 L 3.1932 0.4385 L 3.1740 0.4139 L 3.1505 0.3929 L 3.1230 0.3756 L 3.0923 0.3634 L 3.0590 0.3570 L 3.1017 0.3515 L 3.1398 0.3408 L 3.1729 0.3252 L 3.2007 0.3052 L 3.2230 0.2809 L 3.2394 0.2525 L 3.2496 0.2202 L 3.2530 0.1841 L 3.2492 0.1420 L 3.2377 0.1050 L 3.2190 0.0733 L 3.1932 0.0472 L 3.1607 0.0268 L 3.1216 0.0120 L 3.0766 0.0030 L 3.0260 0.0000 L 2.8169 0.0000 L 2.8169 0.7000 L 2.9990 0.7000 Z M 3.8196 0.2491 L 3.6471 0.6630 L 3.6447 0.6683 L 3.6427 0.6734 L 3.6409 0.6786 L 3.6389 0.6841 L 3.6371 0.6786 L 3.6352 0.6734 L 3.6333 0.6683 L 3.6310 0.6630 L 3.4585 0.2491 L 3.8196 0.2491 Z M 3.9360 0.0000 L 3.9271 0.0000 L 3.9233 0.0013 L 3.9210 0.0050 L 3.8235 0.2391 L 3.4546 0.2391 L 3.3571 0.0050 L 3.3545 0.0013 L 3.3500 0.0000 L 3.3421 0.0000 L 3.6339 0.7000 L 3.6439 0.7000 L 3.9360 0.0000 Z M 4.4425 0.0109 L 4.4425 0.0000 L 4.0734 0.0000 L 4.0734 0.7000 L 4.0855 0.7000 L 4.0855 0.0109 L 4.4425 0.0109 Z M 4.9425 0.0109 L 4.9425 0.0000 L 4.5734 0.0000 L 4.5734 0.7000 L 4.5855 0.7000 L 4.5855 0.0109 L 4.9425 0.0109 Z" fill="#A8AEC4" fill-rule="evenodd"/></g>
  <g transform="translate(43.517 342.269) scale(30.042 -30.042)" ><path d="M 0.1280 0.6891 L 0.1280 0.3509 L 0.4750 0.3509 L 0.4750 0.3400 L 0.1280 0.3400 L 0.1280 0.0000 L 0.1159 0.0000 L 0.1159 0.7000 L 0.5250 0.7000 L 0.5250 0.6891 L 0.1280 0.6891 Z M 1.2795 0.3500 L 1.2735 0.2712 L 1.2557 0.2009 L 1.2272 0.1399 L 1.1892 0.0887 L 1.1423 0.0479 L 1.0870 0.0177 L 1.0244 -0.0009 L 0.9556 -0.0070 L 0.8871 -0.0009 L 0.8248 0.0177 L 0.7697 0.0479 L 0.7228 0.0887 L 0.6847 0.1399 L 0.6562 0.2009 L 0.6384 0.2712 L 0.6324 0.3500 L 0.6384 0.4284 L 0.6562 0.4988 L 0.6847 0.5600 L 0.7228 0.6114 L 0.7697 0.6526 L 0.8248 0.6830 L 0.8871 0.7017 L 0.9556 0.7080 L 1.0244 0.7018 L 1.0870 0.6831 L 1.1423 0.6530 L 1.1892 0.6119 L 1.2272 0.5605 L 1.2557 0.4992 L 1.2735 0.4288 L 1.2795 0.3500 Z M 1.2665 0.3500 L 1.2608 0.4273 L 1.2437 0.4959 L 1.2164 0.5556 L 1.1799 0.6055 L 1.1349 0.6452 L 1.0817 0.6742 L 1.0215 0.6920 L 0.9556 0.6980 L 0.8902 0.6920 L 0.8304 0.6742 L 0.7774 0.6452 L 0.7323 0.6055 L 0.6955 0.5556 L 0.6678 0.4959 L 0.6503 0.4273 L 0.6445 0.3500 L 0.6503 0.2728 L 0.6678 0.2042 L 0.6955 0.1448 L 0.7323 0.0952 L 0.7774 0.0557 L 0.8304 0.0267 L 0.8902 0.0089 L 0.9556 0.0030 L 1.0215 0.0089 L 1.0817 0.0267 L 1.1349 0.0557 L 1.1799 0.0952 L 1.2164 0.1448 L 1.2437 0.2042 L 1.2608 0.2728 L 1.2665 0.3500 Z M 2.0635 0.3500 L 2.0575 0.2712 L 2.0397 0.2009 L 2.0112 0.1399 L 1.9732 0.0887 L 1.9263 0.0479 L 1.8710 0.0177 L 1.8084 -0.0009 L 1.7396 -0.0070 L 1.6711 -0.0009 L 1.6088 0.0177 L 1.5537 0.0479 L 1.5068 0.0887 L 1.4687 0.1399 L 1.4402 0.2009 L 1.4224 0.2712 L 1.4164 0.3500 L 1.4224 0.4284 L 1.4402 0.4988 L 1.4687 0.5600 L 1.5068 0.6114 L 1.5537 0.6526 L 1.6088 0.6830 L 1.6711 0.7017 L 1.7396 0.7080 L 1.8084 0.7018 L 1.8710 0.6831 L 1.9263 0.6530 L 1.9732 0.6119 L 2.0112 0.5605 L 2.0397 0.4992 L 2.0575 0.4288 L 2.0635 0.3500 Z M 2.0505 0.3500 L 2.0448 0.4273 L 2.0277 0.4959 L 2.0004 0.5556 L 1.9639 0.6055 L 1.9189 0.6452 L 1.8657 0.6742 L 1.8055 0.6920 L 1.7396 0.6980 L 1.6742 0.6920 L 1.6144 0.6742 L 1.5614 0.6452 L 1.5163 0.6055 L 1.4795 0.5556 L 1.4518 0.4959 L 1.4343 0.4273 L 1.4285 0.3500 L 1.4343 0.2728 L 1.4518 0.2042 L 1.4795 0.1448 L 1.5163 0.0952 L 1.5614 0.0557 L 1.6144 0.0267 L 1.6742 0.0089 L 1.7396 0.0030 L 1.8055 0.0089 L 1.8657 0.0267 L 1.9189 0.0557 L 1.9639 0.0952 L 2.0004 0.1448 L 2.0277 0.2042 L 2.0448 0.2728 L 2.0505 0.3500 Z M 2.6865 0.6891 L 2.4236 0.6891 L 2.4236 0.0000 L 2.4115 0.0000 L 2.4115 0.6891 L 2.1465 0.6891 L 2.1465 0.7000 L 2.6865 0.7000 L 2.6865 0.6891 Z M 3.0260 0.0100 L 3.0739 0.0127 L 3.1165 0.0209 L 3.1534 0.0347 L 3.1841 0.0537 L 3.2086 0.0782 L 3.2265 0.1081 L 3.2374 0.1435 L 3.2410 0.1841 L 3.2372 0.2202 L 3.2257 0.2527 L 3.2074 0.2812 L 3.1827 0.3052 L 3.1520 0.3244 L 3.1152 0.3384 L 3.0733 0.3471 L 3.0269 0.3500 L 2.8290 0.3500 L 2.8290 0.0100 L 3.0260 0.0100 Z M 2.8290 0.6900 L 2.8290 0.3600 L 3.0040 0.3600 L 3.0558 0.3639 L 3.0990 0.3755 L 3.1344 0.3931 L 3.1624 0.4152 L 3.1835 0.4407 L 3.1979 0.4688 L 3.2062 0.4977 L 3.2090 0.5259 L 3.1960 0.5953 L 3.1573 0.6470 L 3.0918 0.6793 L 2.9990 0.6900 L 2.8290 0.6900 Z M 2.9990 0.7000 L 3.0963 0.6888 L 3.1652 0.6552 L 3.2064 0.6005 L 3.2201 0.5259 L 3.2170 0.4955 L 3.2077 0.4659 L 3.1932 0.4385 L 3.1740 0.4139 L 3.1505 0.3929 L 3.1230 0.3756 L 3.0923 0.3634 L 3.0590 0.3570 L 3.1017 0.3515 L 3.1398 0.3408 L 3.1729 0.3252 L 3.2007 0.3052 L 3.2230 0.2809 L 3.2394 0.2525 L 3.2496 0.2202 L 3.2530 0.1841 L 3.2492 0.1420 L 3.2377 0.1050 L 3.2190 0.0733 L 3.1932 0.0472 L 3.1607 0.0268 L 3.1216 0.0120 L 3.0766 0.0030 L 3.0260 0.0000 L 2.8169 0.0000 L 2.8169 0.7000 L 2.9990 0.7000 Z M 3.8196 0.2491 L 3.6471 0.6630 L 3.6447 0.6683 L 3.6427 0.6734 L 3.6409 0.6786 L 3.6389 0.6841 L 3.6371 0.6786 L 3.6352 0.6734 L 3.6333 0.6683 L 3.6310 0.6630 L 3.4585 0.2491 L 3.8196 0.2491 Z M 3.9360 0.0000 L 3.9271 0.0000 L 3.9233 0.0013 L 3.9210 0.0050 L 3.8235 0.2391 L 3.4546 0.2391 L 3.3571 0.0050 L 3.3545 0.0013 L 3.3500 0.0000 L 3.3421 0.0000 L 3.6339 0.7000 L 3.6439 0.7000 L 3.9360 0.0000 Z M 4.4425 0.0109 L 4.4425 0.0000 L 4.0734 0.0000 L 4.0734 0.7000 L 4.0855 0.7000 L 4.0855 0.0109 L 4.4425 0.0109 Z M 4.9425 0.0109 L 4.9425 0.0000 L 4.5734 0.0000 L 4.5734 0.7000 L 4.5855 0.7000 L 4.5855 0.0109 L 4.9425 0.0109 Z" fill="#1B234D" fill-rule="evenodd"/></g>
</svg>
