<?xml version="1.0" encoding="UTF-8"?>
<svg viewBox="0 0 400 560" xmlns="http://www.w3.org/2000/svg">
  <defs>
    <clipPath id="ball-clip">
      <circle cx="200" cy="195" r="173"/>
    </clipPath>
  </defs>

  <!-- 외곽 링 -->
  <circle cx="200" cy="195" r="192" fill="#3050F0"/>
  <circle cx="200" cy="195" r="184" fill="#1828D8"/>
  <circle cx="200" cy="195" r="175" fill="#0407C7"/>

  <!-- 수학적으로 계산된 축구공 패치 -->
  <g clip-path="url(#ball-clip)" stroke="#1535CC" stroke-width="2.5" fill="#02059a" stroke-linejoin="round">

    <!-- 중앙 오각형 -->
    <polygon points="200,157 236.1,183.3 222.3,225.7 177.7,225.7 163.9,183.3"/>

    <!-- 육각형 1 (상단) -->
    <polygon points="211.6,114.5 246.3,99 277,121.3 273,159.1 238.3,174.6 207.6,152.3"/>

    <!-- 육각형 2 (우상) -->
    <polygon points="280.2,181.1 305.7,209.3 293.9,245.4 256.8,253.3 231.3,225.1 243.1,189"/>

    <!-- 육각형 3 (하단) -->
    <polygon points="238,267 219,299.9 181,299.9 162,267 181,234.1 219,234.1"/>

    <!-- 육각형 4 (좌하) -->
    <polygon points="143.2,253.3 106.1,245.4 94.3,209.3 119.8,181.1 156.9,189 168.7,225.1"/>

    <!-- 육각형 5 (좌상) -->
    <polygon points="127,159.1 123,121.3 153.7,99 188.4,114.5 192.4,152.3 161.7,174.6"/>

    <!-- 외곽 오각형 1 (최상단) -->
    <polygon points="200,25 236.1,51.3 222.3,93.7 177.7,93.7 163.9,51.3"/>

    <!-- 외곽 오각형 2 (우상) -->
    <polygon points="361.6,142.5 347.8,184.9 303.2,184.9 289.4,142.5 325.5,116.2"/>

    <!-- 외곽 오각형 3 (우하) -->
    <polygon points="299.9,332.5 255.3,332.5 241.5,290.1 277.6,263.8 313.7,290.1"/>

    <!-- 외곽 오각형 4 (좌하) -->
    <polygon points="100.1,332.5 86.3,290.1 122.4,263.8 158.5,290.1 144.7,332.5"/>

    <!-- 외곽 오각형 5 (좌상) -->
    <polygon points="38.4,142.5 74.5,116.2 110.6,142.5 96.8,184.9 52.2,184.9"/>

  </g>

  <!-- 원 테두리 -->
  <circle cx="200" cy="195" r="175" fill="none" stroke="#1535E8" stroke-width="5"/>

  <!-- P 이니셜 (확정) -->
  <text
    x="200"
    y="196"
    font-family="Arial, Helvetica, sans-serif"
    font-size="148"
    font-weight="400"
    fill="#FFFFFF"
    text-anchor="middle"
    dominant-baseline="central"
  >P</text>

  <!-- Ploky (확정) -->
  <text
    x="200"
    y="452"
    font-family="Arial Black, sans-serif"
    font-size="58"
    font-weight="900"
    fill="#0D1260"
    text-anchor="middle"
  >Ploky</text>

  <!-- FOOTBALL (확정) -->
  <text
    x="200"
    y="498"
    font-family="Arial, sans-serif"
    font-size="19"
    font-weight="500"
    fill="#1a1a1a"
    text-anchor="middle"
    letter-spacing="6"
  >FOOTBALL</text>
</svg>
